<svg width="1200" height="800" viewBox="0 0 1200 800" fill="none" xmlns="http://www.w3.org/2000/svg">
<rect width="1200" height="800" fill="white"/>
<line x1="0.5" y1="-0.5" x2="27.2517" y2="-0.5" transform="matrix(1 1.76201e-05 -1.86589e-05 1 1017.72 74.5333)" stroke="#7A7A7A" stroke-linecap="round"/>
<line x1="0.5" y1="-0.5" x2="27.2517" y2="-0.5" transform="matrix(1 1.76201e-05 -1.86589e-05 1 1017.72 144.128)" stroke="#7A7A7A" stroke-linecap="round"/>
<line x1="0.5" y1="-0.5" x2="26.4681" y2="-0.5" transform="matrix(-1.86589e-05 1 -1 -1.76201e-05 1066.96 95.4127)" stroke="#7A7A7A" stroke-linecap="round"/>
<line x1="0.5" y1="-0.5" x2="26.4681" y2="-0.5" transform="matrix(-1.86589e-05 1 -1 -1.76201e-05 995.338 95.4114)" stroke="#7A7A7A" stroke-linecap="round"/>
<rect width="61.7656" height="63.5604" rx="21" transform="matrix(1.86589e-05 -1 1 1.76201e-05 999.813 139.778)" fill="#7A7A7A"/>
<line x1="0.5" y1="-0.5" x2="27.2517" y2="-0.5" transform="matrix(1 1.76201e-05 -1.86589e-05 1 1017.72 74.5333)" stroke="#7A7A7A" stroke-linecap="round"/>
<line x1="0.5" y1="-0.5" x2="27.2517" y2="-0.5" transform="matrix(1 1.76201e-05 -1.86589e-05 1 1017.72 144.128)" stroke="#7A7A7A" stroke-linecap="round"/>
<line x1="0.5" y1="-0.5" x2="26.4681" y2="-0.5" transform="matrix(-1.86589e-05 1 -1 -1.76201e-05 1066.96 95.4127)" stroke="#7A7A7A" stroke-linecap="round"/>
<line x1="0.5" y1="-0.5" x2="26.4681" y2="-0.5" transform="matrix(-1.86589e-05 1 -1 -1.76201e-05 995.338 95.4114)" stroke="#7A7A7A" stroke-linecap="round"/>
<rect width="61.7656" height="63.5604" rx="21" transform="matrix(1.86589e-05 -1 1 1.76201e-05 999.813 139.778)" fill="#7A7A7A"/>
<line x1="0.5" y1="-0.5" x2="27.2517" y2="-0.5" transform="matrix(1 1.76201e-05 -1.86589e-05 1 902.236 74.5312)" stroke="#7A7A7A" stroke-linecap="round"/>
<line x1="0.5" y1="-0.5" x2="27.2517" y2="-0.5" transform="matrix(1 1.76201e-05 -1.86589e-05 1 902.235 144.126)" stroke="#7A7A7A" stroke-linecap="round"/>
<line x1="0.5" y1="-0.5" x2="26.4681" y2="-0.5" transform="matrix(-1.86589e-05 1 -1 -1.76201e-05 951.472 95.4106)" stroke="#7A7A7A" stroke-linecap="round"/>
<line x1="0.5" y1="-0.5" x2="26.4681" y2="-0.5" transform="matrix(-1.86589e-05 1 -1 -1.76201e-05 879.855 95.4094)" stroke="#7A7A7A" stroke-linecap="round"/>
<rect width="61.7656" height="63.5604" rx="21" transform="matrix(1.86589e-05 -1 1 1.76201e-05 884.33 139.776)" fill="#7A7A7A"/>
<line x1="0.5" y1="-0.5" x2="27.2517" y2="-0.5" transform="matrix(1 1.76201e-05 -1.86589e-05 1 671.865 74.8723)" stroke="#7A7A7A" stroke-linecap="round"/>
<line x1="0.5" y1="-0.5" x2="27.2517" y2="-0.5" transform="matrix(1 1.76201e-05 -1.86589e-05 1 671.863 144.467)" stroke="#7A7A7A" stroke-linecap="round"/>
<line x1="0.5" y1="-0.5" x2="26.4681" y2="-0.5" transform="matrix(-1.86589e-05 1 -1 -1.76201e-05 721.101 95.7517)" stroke="#7A7A7A" stroke-linecap="round"/>
<line x1="0.5" y1="-0.5" x2="26.4681" y2="-0.5" transform="matrix(-1.86589e-05 1 -1 -1.76201e-05 649.484 95.7505)" stroke="#7A7A7A" stroke-linecap="round"/>
<rect width="61.7656" height="63.5604" rx="21" transform="matrix(1.86589e-05 -1 1 1.76201e-05 653.959 140.117)" fill="#7A7A7A"/>
<line x1="0.5" y1="-0.5" x2="27.2517" y2="-0.5" transform="matrix(1 1.76201e-05 -1.86589e-05 1 902.236 74.5312)" stroke="#7A7A7A" stroke-linecap="round"/>
<line x1="0.5" y1="-0.5" x2="27.2517" y2="-0.5" transform="matrix(1 1.76201e-05 -1.86589e-05 1 902.235 144.126)" stroke="#7A7A7A" stroke-linecap="round"/>
<line x1="0.5" y1="-0.5" x2="26.4681" y2="-0.5" transform="matrix(-1.86589e-05 1 -1 -1.76201e-05 951.472 95.4106)" stroke="#7A7A7A" stroke-linecap="round"/>
<line x1="0.5" y1="-0.5" x2="26.4681" y2="-0.5" transform="matrix(-1.86589e-05 1 -1 -1.76201e-05 879.855 95.4094)" stroke="#7A7A7A" stroke-linecap="round"/>
<rect width="61.7656" height="63.5604" rx="21" transform="matrix(1.86589e-05 -1 1 1.76201e-05 884.33 139.776)" fill="#7A7A7A"/>
<line x1="0.5" y1="-0.5" x2="27.2517" y2="-0.5" transform="matrix(1 1.76201e-05 -1.86589e-05 1 786.753 73.6593)" stroke="#7A7A7A" stroke-linecap="round"/>
<line x1="0.5" y1="-0.5" x2="27.2517" y2="-0.5" transform="matrix(1 1.76201e-05 -1.86589e-05 1 786.752 143.254)" stroke="#7A7A7A" stroke-linecap="round"/>
<line x1="0.5" y1="-0.5" x2="26.4681" y2="-0.5" transform="matrix(-1.86589e-05 1 -1 -1.76201e-05 835.99 94.5387)" stroke="#7A7A7A" stroke-linecap="round"/>
<line x1="0.5" y1="-0.5" x2="26.4681" y2="-0.5" transform="matrix(-1.86589e-05 1 -1 -1.76201e-05 764.372 94.5374)" stroke="#7A7A7A" stroke-linecap="round"/>
<rect width="61.7656" height="63.5604" rx="21" transform="matrix(1.86589e-05 -1 1 1.76201e-05 768.848 138.904)" fill="#7A7A7A"/>
<line x1="0.5" y1="-0.5" x2="27.2517" y2="-0.5" transform="matrix(1 1.76201e-05 -1.86589e-05 1 786.753 73.6593)" stroke="#7A7A7A" stroke-linecap="round"/>
<line x1="0.5" y1="-0.5" x2="27.2517" y2="-0.5" transform="matrix(1 1.76201e-05 -1.86589e-05 1 786.752 143.254)" stroke="#7A7A7A" stroke-linecap="round"/>
<line x1="0.5" y1="-0.5" x2="26.4681" y2="-0.5" transform="matrix(-1.86589e-05 1 -1 -1.76201e-05 835.99 94.5387)" stroke="#7A7A7A" stroke-linecap="round"/>
<line x1="0.5" y1="-0.5" x2="26.4681" y2="-0.5" transform="matrix(-1.86589e-05 1 -1 -1.76201e-05 764.372 94.5374)" stroke="#7A7A7A" stroke-linecap="round"/>
<rect width="61.7656" height="63.5604" rx="21" transform="matrix(1.86589e-05 -1 1 1.76201e-05 768.848 138.904)" fill="#7A7A7A"/>
<line x1="0.5" y1="-0.5" x2="27.2517" y2="-0.5" transform="matrix(1 1.76201e-05 -1.86589e-05 1 556.382 74.0004)" stroke="#7A7A7A" stroke-linecap="round"/>
<line x1="0.5" y1="-0.5" x2="27.2517" y2="-0.5" transform="matrix(1 1.76201e-05 -1.86589e-05 1 556.38 143.595)" stroke="#7A7A7A" stroke-linecap="round"/>
<line x1="0.5" y1="-0.5" x2="26.4681" y2="-0.5" transform="matrix(-1.86589e-05 1 -1 -1.76201e-05 605.618 94.8798)" stroke="#7A7A7A" stroke-linecap="round"/>
<line x1="0.5" y1="-0.5" x2="26.4681" y2="-0.5" transform="matrix(-1.86589e-05 1 -1 -1.76201e-05 534.001 94.8785)" stroke="#7A7A7A" stroke-linecap="round"/>
<rect width="61.7656" height="63.5604" rx="21" transform="matrix(1.86589e-05 -1 1 1.76201e-05 538.476 139.245)" fill="#7A7A7A"/>
<line x1="0.5" y1="-0.5" x2="27.2517" y2="-0.5" transform="matrix(1 1.76201e-05 -1.86589e-05 1 786.753 73.6593)" stroke="#7A7A7A" stroke-linecap="round"/>
<line x1="0.5" y1="-0.5" x2="27.2517" y2="-0.5" transform="matrix(1 1.76201e-05 -1.86589e-05 1 786.752 143.254)" stroke="#7A7A7A" stroke-linecap="round"/>
<line x1="0.5" y1="-0.5" x2="26.4681" y2="-0.5" transform="matrix(-1.86589e-05 1 -1 -1.76201e-05 835.99 94.5387)" stroke="#7A7A7A" stroke-linecap="round"/>
<line x1="0.5" y1="-0.5" x2="26.4681" y2="-0.5" transform="matrix(-1.86589e-05 1 -1 -1.76201e-05 764.372 94.5374)" stroke="#7A7A7A" stroke-linecap="round"/>
<rect width="61.7656" height="63.5604" rx="21" transform="matrix(1.86589e-05 -1 1 1.76201e-05 768.848 138.904)" fill="#7A7A7A"/>
<line x1="635" y1="524.5" x2="1144" y2="524.5" stroke="#7A7A7A" stroke-width="7"/>
<line x1="55" y1="750.5" x2="1144" y2="750.5" stroke="#7A7A7A" stroke-width="7"/>
<line x1="254.5" y1="705.994" x2="255" y2="400.993" stroke="#7A7A7A" stroke-width="7"/>
<line x1="58.5" y1="748" x2="58.5" y2="400" stroke="#7A7A7A" stroke-width="7"/>
<line x1="372.5" y1="332" x2="372.5" y2="47" stroke="#7A7A7A" stroke-width="7"/>
<line x1="58.5" y1="400" x2="58.5" y2="163" stroke="#7A7A7A" stroke-width="7"/>
<line x1="1140.5" y1="409" x2="1140.5" y2="52" stroke="#7A7A7A" stroke-width="7"/>
<line x1="1140.5" y1="754" x2="1140.5" y2="484" stroke="#7A7A7A" stroke-width="7"/>
<line x1="497.5" y1="753.985" x2="498.5" y2="527.984" stroke="#7A7A7A" stroke-width="7"/>
<line x1="369.489" y1="400.539" x2="403.799" y2="435.243" stroke="#7A7A7A" stroke-width="7"/>
<line x1="459.425" y1="486.574" x2="497.426" y2="524.574" stroke="#7A7A7A" stroke-width="7"/>
<line x1="495" y1="524.5" x2="584" y2="524.5" stroke="#7A7A7A" stroke-width="7"/>
<line x1="57.5149" y1="165.515" x2="175.515" y2="47.5149" stroke="#7A7A7A" stroke-width="7"/>
<line x1="173" y1="48.5" x2="1144" y2="48.5" stroke="#7A7A7A" stroke-width="7"/>
<line x1="193.5" y1="520.886" x2="193.5" y2="538.142" stroke="#7A7A7A" stroke-linecap="round"/>
<line x1="122.5" y1="520.886" x2="122.5" y2="538.142" stroke="#7A7A7A" stroke-linecap="round"/>
<line x1="167.65" y1="503.5" x2="150.013" y2="503.5" stroke="#7A7A7A" stroke-linecap="round"/>
<rect x="126.438" y="507.347" width="63.0125" height="148.653" rx="15" fill="#7A7A7A"/>
<line x1="193.5" y1="546.966" x2="193.5" y2="564.222" stroke="#7A7A7A" stroke-linecap="round"/>
<line x1="122.5" y1="546.966" x2="122.5" y2="564.222" stroke="#7A7A7A" stroke-linecap="round"/>
<line x1="193.5" y1="573.045" x2="193.5" y2="590.301" stroke="#7A7A7A" stroke-linecap="round"/>
<line x1="122.5" y1="573.045" x2="122.5" y2="590.301" stroke="#7A7A7A" stroke-linecap="round"/>
<line x1="193.5" y1="599.125" x2="193.5" y2="616.381" stroke="#7A7A7A" stroke-linecap="round"/>
<line x1="122.5" y1="599.125" x2="122.5" y2="616.381" stroke="#7A7A7A" stroke-linecap="round"/>
<line x1="193.5" y1="625.205" x2="193.5" y2="642.46" stroke="#7A7A7A" stroke-linecap="round"/>
<line x1="122.5" y1="625.205" x2="122.5" y2="642.46" stroke="#7A7A7A" stroke-linecap="round"/>
<rect x="292.59" y="592.527" width="138.922" height="63.7179" rx="15" transform="rotate(-90 292.59 592.527)" fill="#7A7A7A"/>
<line x1="311.038" y1="595.5" x2="337.859" y2="595.5" stroke="#7A7A7A" stroke-linecap="round"/>
<line x1="311.038" y1="450.5" x2="337.859" y2="450.5" stroke="#7A7A7A" stroke-linecap="round"/>
<line x1="289.5" y1="547.877" x2="289.5" y2="573.793" stroke="#7A7A7A" stroke-linecap="round"/>
<line x1="289.5" y1="508.805" x2="289.5" y2="534.722" stroke="#7A7A7A" stroke-linecap="round"/>
<line x1="289.5" y1="470.602" x2="289.5" y2="496.518" stroke="#7A7A7A" stroke-linecap="round"/>
<line x1="359.5" y1="547.877" x2="359.5" y2="573.793" stroke="#7A7A7A" stroke-linecap="round"/>
<line x1="359.5" y1="508.805" x2="359.5" y2="534.722" stroke="#7A7A7A" stroke-linecap="round"/>
<line x1="359.5" y1="470.602" x2="359.5" y2="496.518" stroke="#7A7A7A" stroke-linecap="round"/>
<rect x="288.593" y="645.487" width="143.713" height="61.8974" rx="15" fill="#7A7A7A"/>
<line x1="285.5" y1="663.423" x2="285.5" y2="689.449" stroke="#7A7A7A" stroke-linecap="round"/>
<line x1="435.5" y1="663.423" x2="435.5" y2="689.449" stroke="#7A7A7A" stroke-linecap="round"/>
<line x1="334.799" y1="642.5" x2="307.955" y2="642.5" stroke="#7A7A7A" stroke-linecap="round"/>
<line x1="375.219" y1="642.5" x2="348.374" y2="642.5" stroke="#7A7A7A" stroke-linecap="round"/>
<line x1="414.74" y1="642.5" x2="387.895" y2="642.5" stroke="#7A7A7A" stroke-linecap="round"/>
<line x1="334.799" y1="710.5" x2="307.955" y2="710.5" stroke="#7A7A7A" stroke-linecap="round"/>
<line x1="375.219" y1="710.5" x2="348.374" y2="710.5" stroke="#7A7A7A" stroke-linecap="round"/>
<line x1="414.74" y1="710.5" x2="387.895" y2="710.5" stroke="#7A7A7A" stroke-linecap="round"/>
<path d="M240.45 131.931C240.45 148.842 226.344 162.55 208.944 162.55C191.543 162.55 177.438 148.842 177.438 131.931C177.438 115.021 191.543 101.312 208.944 101.312C226.344 101.312 240.45 115.021 240.45 131.931Z" fill="#7A7A7A"/>
<line x1="244.5" y1="119.062" x2="244.5" y2="144.8" stroke="#7A7A7A" stroke-linecap="round"/>
<line x1="173.5" y1="119.062" x2="173.5" y2="144.8" stroke="#7A7A7A" stroke-linecap="round"/>
<line x1="222.2" y1="166.5" x2="195.688" y2="166.5" stroke="#7A7A7A" stroke-linecap="round"/>
<line x1="222.2" y1="97.5" x2="195.688" y2="97.5" stroke="#7A7A7A" stroke-linecap="round"/>
<path d="M360.45 109.931C360.45 126.842 346.344 140.55 328.944 140.55C311.543 140.55 297.438 126.842 297.438 109.931C297.438 93.021 311.543 79.3125 328.944 79.3125C346.344 79.3125 360.45 93.021 360.45 109.931Z" fill="#7A7A7A"/>
<line x1="364.5" y1="97.0625" x2="364.5" y2="122.8" stroke="#7A7A7A" stroke-linecap="round"/>
<line x1="293.5" y1="97.0625" x2="293.5" y2="122.8" stroke="#7A7A7A" stroke-linecap="round"/>
<line x1="342.2" y1="144.5" x2="315.688" y2="144.5" stroke="#7A7A7A" stroke-linecap="round"/>
<line x1="342.2" y1="75.5" x2="315.688" y2="75.5" stroke="#7A7A7A" stroke-linecap="round"/>
<path d="M144.45 328.931C144.45 345.842 130.344 359.55 112.944 359.55C95.5433 359.55 81.4375 345.842 81.4375 328.931C81.4375 312.021 95.5433 298.312 112.944 298.312C130.344 298.312 144.45 312.021 144.45 328.931Z" fill="#7A7A7A"/>
<line x1="148.5" y1="316.062" x2="148.5" y2="341.8" stroke="#7A7A7A" stroke-linecap="round"/>
<line x1="77.5" y1="316.062" x2="77.5" y2="341.8" stroke="#7A7A7A" stroke-linecap="round"/>
<line x1="126.2" y1="363.5" x2="99.6875" y2="363.5" stroke="#7A7A7A" stroke-linecap="round"/>
<line x1="126.2" y1="294.5" x2="99.6875" y2="294.5" stroke="#7A7A7A" stroke-linecap="round"/>
<path d="M166.45 203.438C166.45 220.593 152.344 234.5 134.944 234.5C117.543 234.5 103.438 220.593 103.438 203.438C103.438 186.282 117.543 172.375 134.944 172.375C152.344 172.375 166.45 186.282 166.45 203.438Z" fill="#7A7A7A"/>
<line x1="170.5" y1="190.375" x2="170.5" y2="216.5" stroke="#7A7A7A" stroke-linecap="round"/>
<line x1="99.5" y1="190.375" x2="99.5" y2="216.5" stroke="#7A7A7A" stroke-linecap="round"/>
<line x1="148.2" y1="238.5" x2="121.688" y2="238.5" stroke="#7A7A7A" stroke-linecap="round"/>
<line x1="148.2" y1="168.5" x2="121.688" y2="168.5" stroke="#7A7A7A" stroke-linecap="round"/>
<rect x="536.59" y="313.531" width="104.93" height="63.7179" rx="15" transform="rotate(-90 536.59 313.531)" fill="#7A7A7A"/>
<line x1="555.038" y1="316.5" x2="581.859" y2="316.5" stroke="#7A7A7A" stroke-linecap="round"/>
<line x1="555.038" y1="205.5" x2="581.859" y2="205.5" stroke="#7A7A7A" stroke-linecap="round"/>
<line x1="603.5" y1="267.203" x2="603.5" y2="293.086" stroke="#7A7A7A" stroke-linecap="round"/>
<line x1="533.5" y1="267.203" x2="533.5" y2="293.086" stroke="#7A7A7A" stroke-linecap="round"/>
<line x1="603.5" y1="228.18" x2="603.5" y2="254.062" stroke="#7A7A7A" stroke-linecap="round"/>
<line x1="533.5" y1="228.18" x2="533.5" y2="254.062" stroke="#7A7A7A" stroke-linecap="round"/>
<rect x="767.59" y="312.531" width="104.93" height="63.7179" rx="15" transform="rotate(-90 767.59 312.531)" fill="#7A7A7A"/>
<line x1="786.038" y1="315.5" x2="812.859" y2="315.5" stroke="#7A7A7A" stroke-linecap="round"/>
<line x1="786.038" y1="204.5" x2="812.859" y2="204.5" stroke="#7A7A7A" stroke-linecap="round"/>
<line x1="834.5" y1="266.203" x2="834.5" y2="292.086" stroke="#7A7A7A" stroke-linecap="round"/>
<line x1="764.5" y1="266.203" x2="764.5" y2="292.086" stroke="#7A7A7A" stroke-linecap="round"/>
<line x1="834.5" y1="227.18" x2="834.5" y2="253.062" stroke="#7A7A7A" stroke-linecap="round"/>
<line x1="764.5" y1="227.18" x2="764.5" y2="253.062" stroke="#7A7A7A" stroke-linecap="round"/>
<rect x="652.59" y="313.531" width="104.93" height="63.7179" rx="15" transform="rotate(-90 652.59 313.531)" fill="#7A7A7A"/>
<line x1="671.038" y1="316.5" x2="697.859" y2="316.5" stroke="#7A7A7A" stroke-linecap="round"/>
<line x1="671.038" y1="205.5" x2="697.859" y2="205.5" stroke="#7A7A7A" stroke-linecap="round"/>
<line x1="719.5" y1="267.203" x2="719.5" y2="293.086" stroke="#7A7A7A" stroke-linecap="round"/>
<line x1="649.5" y1="267.203" x2="649.5" y2="293.086" stroke="#7A7A7A" stroke-linecap="round"/>
<line x1="719.5" y1="228.18" x2="719.5" y2="254.062" stroke="#7A7A7A" stroke-linecap="round"/>
<line x1="649.5" y1="228.18" x2="649.5" y2="254.062" stroke="#7A7A7A" stroke-linecap="round"/>
<rect x="883.59" y="312.531" width="104.93" height="63.7179" rx="15" transform="rotate(-90 883.59 312.531)" fill="#7A7A7A"/>
<line x1="902.038" y1="315.5" x2="928.859" y2="315.5" stroke="#7A7A7A" stroke-linecap="round"/>
<line x1="902.038" y1="204.5" x2="928.859" y2="204.5" stroke="#7A7A7A" stroke-linecap="round"/>
<line x1="950.5" y1="266.203" x2="950.5" y2="292.086" stroke="#7A7A7A" stroke-linecap="round"/>
<line x1="880.5" y1="266.203" x2="880.5" y2="292.086" stroke="#7A7A7A" stroke-linecap="round"/>
<line x1="950.5" y1="227.18" x2="950.5" y2="253.062" stroke="#7A7A7A" stroke-linecap="round"/>
<line x1="880.5" y1="227.18" x2="880.5" y2="253.062" stroke="#7A7A7A" stroke-linecap="round"/>
<rect x="998.59" y="313.531" width="104.93" height="63.7179" rx="15" transform="rotate(-90 998.59 313.531)" fill="#7A7A7A"/>
<line x1="1017.04" y1="316.5" x2="1043.86" y2="316.5" stroke="#7A7A7A" stroke-linecap="round"/>
<line x1="1017.04" y1="205.5" x2="1043.86" y2="205.5" stroke="#7A7A7A" stroke-linecap="round"/>
<line x1="1065.5" y1="267.203" x2="1065.5" y2="293.086" stroke="#7A7A7A" stroke-linecap="round"/>
<line x1="995.5" y1="267.203" x2="995.5" y2="293.086" stroke="#7A7A7A" stroke-linecap="round"/>
<line x1="1065.5" y1="228.18" x2="1065.5" y2="254.062" stroke="#7A7A7A" stroke-linecap="round"/>
<line x1="995.5" y1="228.18" x2="995.5" y2="254.062" stroke="#7A7A7A" stroke-linecap="round"/>
<path d="M510 351.5C510 345.701 514.701 341 520.5 341H1137V362H520.5C514.701 362 510 357.299 510 351.5Z" fill="#D9D9D9"/>
<ellipse cx="572" cy="393" rx="13.3333" ry="13" fill="#7A7A7A"/>
<path d="M588 383.467V401.667" stroke="#7A7A7A"/>
<path d="M556 383.467V401.667" stroke="#7A7A7A"/>
<ellipse cx="572" cy="393" rx="13.3333" ry="13" fill="#7A7A7A"/>
<path d="M588 383.467V401.667" stroke="#7A7A7A"/>
<path d="M556 383.467V401.667" stroke="#7A7A7A"/>
<ellipse cx="629" cy="393" rx="13.3333" ry="13" fill="#7A7A7A"/>
<path d="M645 383.467V401.667" stroke="#7A7A7A"/>
<path d="M613 383.467V401.667" stroke="#7A7A7A"/>
<ellipse cx="686.5" cy="393" rx="13.75" ry="13" fill="#7A7A7A"/>
<path d="M703 383.467V401.667" stroke="#7A7A7A"/>
<path d="M670 383.467V401.667" stroke="#7A7A7A"/>
<ellipse cx="744" cy="393" rx="13.3333" ry="13" fill="#7A7A7A"/>
<path d="M760 383.467V401.667" stroke="#7A7A7A"/>
<path d="M728 383.467V401.667" stroke="#7A7A7A"/>
<ellipse cx="801" cy="393" rx="13.3333" ry="13" fill="#7A7A7A"/>
<path d="M817 383.467V401.667" stroke="#7A7A7A"/>
<path d="M785 383.467V401.667" stroke="#7A7A7A"/>
<ellipse cx="858" cy="393" rx="13.3333" ry="13" fill="#7A7A7A"/>
<path d="M874 383.467V401.667" stroke="#7A7A7A"/>
<path d="M842 383.467V401.667" stroke="#7A7A7A"/>
<ellipse cx="916" cy="393" rx="13.3333" ry="13" fill="#7A7A7A"/>
<path d="M932 383.467V401.667" stroke="#7A7A7A"/>
<path d="M900 383.467V401.667" stroke="#7A7A7A"/>
<ellipse cx="973" cy="393" rx="13.3333" ry="13" fill="#7A7A7A"/>
<path d="M989 383.467V401.667" stroke="#7A7A7A"/>
<path d="M957 383.467V401.667" stroke="#7A7A7A"/>
<ellipse cx="1030" cy="393" rx="13.3333" ry="13" fill="#7A7A7A"/>
<path d="M1046 383.467V401.667" stroke="#7A7A7A"/>
<path d="M1014 383.467V401.667" stroke="#7A7A7A"/>
<line x1="722.5" y1="528" x2="722.5" y2="754" stroke="#7A7A7A" stroke-width="7"/>
<path d="M940.5 526.5L945.718 538.064C953.803 555.982 971.636 567.5 991.293 567.5H1138.5" stroke="#7A7A7A" stroke-width="4"/>
<line x1="637" y1="528" x2="637" y2="571" stroke="#7A7A7A" stroke-width="4" stroke-linecap="round"/>
<path d="M638 571.5H628.5C603.371 571.5 583 551.129 583 526V526" stroke="#7A7A7A" stroke-width="2" stroke-dasharray="7 7"/>
<path d="M638 571.5H628.5C603.371 571.5 583 551.129 583 526V526" stroke="#7A7A7A" stroke-width="2" stroke-dasharray="7 7"/>
<line x1="1137" y1="486" x2="1094" y2="486" stroke="#7A7A7A" stroke-width="4" stroke-linecap="round"/>
<line x1="1137" y1="486" x2="1094" y2="486" stroke="#7A7A7A" stroke-width="4" stroke-linecap="round"/>
<line x1="1137" y1="486" x2="1094" y2="486" stroke="#7A7A7A" stroke-width="4" stroke-linecap="round"/>
<line x1="1137.01" y1="407" x2="1093.99" y2="407" stroke="#7A7A7A" stroke-width="4" stroke-linecap="round"/>
<line x1="1137.01" y1="407" x2="1093.99" y2="407" stroke="#7A7A7A" stroke-width="4" stroke-linecap="round"/>
<line x1="1137.01" y1="407" x2="1093.99" y2="407" stroke="#7A7A7A" stroke-width="4" stroke-linecap="round"/>
<path d="M1094 406.491V412.233C1094 431.563 1109.67 447.233 1129 447.233V447.233" stroke="#7A7A7A" stroke-width="2" stroke-linejoin="round" stroke-dasharray="7 7"/>
<path d="M1129 447.233V447.233C1109.67 447.233 1094 462.903 1094 482.233V484" stroke="#7A7A7A" stroke-width="2" stroke-dasharray="7 7"/>
<line x1="459.482" y1="489.212" x2="428.144" y2="520.549" stroke="#7A7A7A" stroke-width="4" stroke-linecap="round"/>
<line x1="459.482" y1="489.212" x2="428.144" y2="520.549" stroke="#7A7A7A" stroke-width="4" stroke-linecap="round"/>
<line x1="459.482" y1="489.212" x2="428.144" y2="520.549" stroke="#7A7A7A" stroke-width="4" stroke-linecap="round"/>
<line x1="403.275" y1="432.997" x2="371.93" y2="464.343" stroke="#7A7A7A" stroke-width="4" stroke-linecap="round"/>
<line x1="403.275" y1="432.997" x2="371.93" y2="464.343" stroke="#7A7A7A" stroke-width="4" stroke-linecap="round"/>
<line x1="403.275" y1="432.997" x2="371.93" y2="464.343" stroke="#7A7A7A" stroke-width="4" stroke-linecap="round"/>
<path d="M371.619 463.946L375.166 467.492C389.217 481.544 412 481.544 426.051 467.492V467.492" stroke="#7A7A7A" stroke-width="2" stroke-linejoin="round" stroke-dasharray="7 7"/>
<path d="M426.051 467.492V467.492C412 481.544 412 504.326 426.051 518.378L426.769 519.096" stroke="#7A7A7A" stroke-width="2" stroke-dasharray="7 7"/>
<line x1="252" y1="704" x2="209" y2="704" stroke="#7A7A7A" stroke-width="4" stroke-linecap="round"/>
<path d="M209 705V705C209 727.091 226.909 745 249 745H252" stroke="#7A7A7A" stroke-width="2" stroke-linecap="round" stroke-dasharray="7 7"/>
<line x1="369" y1="330" x2="326" y2="330" stroke="#7A7A7A" stroke-width="4" stroke-linecap="round"/>
<path d="M327 330V333C327 357.301 346.699 377 371 377V377" stroke="#7A7A7A" stroke-width="2" stroke-linecap="round" stroke-dasharray="7 7"/>
<line x1="369.5" y1="376" x2="369.5" y2="400" stroke="#7A7A7A" stroke-width="7"/>
<path d="M899.723 663L894.389 656.469V663H891.449V648.342H894.389V654.915L899.723 648.342H903.272L897.224 655.608L903.44 663H899.723ZM908.314 648.342V663H905.374V648.342H908.314ZM921.194 648.342V650.715H917.288V663H914.348V650.715H910.442V648.342H921.194ZM922.625 655.65C922.625 654.208 922.947 652.92 923.591 651.786C924.249 650.638 925.138 649.749 926.258 649.119C927.392 648.475 928.659 648.153 930.059 648.153C931.697 648.153 933.132 648.573 934.364 649.413C935.596 650.253 936.457 651.415 936.947 652.899H933.566C933.23 652.199 932.754 651.674 932.138 651.324C931.536 650.974 930.836 650.799 930.038 650.799C929.184 650.799 928.421 651.002 927.749 651.408C927.091 651.8 926.573 652.36 926.195 653.088C925.831 653.816 925.649 654.67 925.649 655.65C925.649 656.616 925.831 657.47 926.195 658.212C926.573 658.94 927.091 659.507 927.749 659.913C928.421 660.305 929.184 660.501 930.038 660.501C930.836 660.501 931.536 660.326 932.138 659.976C932.754 659.612 933.23 659.08 933.566 658.38H936.947C936.457 659.878 935.596 661.047 934.364 661.887C933.146 662.713 931.711 663.126 930.059 663.126C928.659 663.126 927.392 662.811 926.258 662.181C925.138 661.537 924.249 660.648 923.591 659.514C922.947 658.38 922.625 657.092 922.625 655.65ZM951.617 648.342V663H948.677V656.763H942.398V663H939.458V648.342H942.398V654.369H948.677V648.342H951.617ZM957.451 650.715V654.39H962.386V656.721H957.451V660.606H963.016V663H954.511V648.321H963.016V650.715H957.451ZM978.224 663H975.284L968.627 652.941V663H965.687V648.321H968.627L975.284 658.401V648.321H978.224V663Z" fill="#7A7A7A"/>
<path d="M588.424 648.342V650.715H584.518V663H581.578V650.715H577.672V648.342H588.424ZM597.373 663.147C596.001 663.147 594.741 662.825 593.593 662.181C592.445 661.537 591.535 660.648 590.863 659.514C590.191 658.366 589.855 657.071 589.855 655.629C589.855 654.201 590.191 652.92 590.863 651.786C591.535 650.638 592.445 649.742 593.593 649.098C594.741 648.454 596.001 648.132 597.373 648.132C598.759 648.132 600.019 648.454 601.153 649.098C602.301 649.742 603.204 650.638 603.862 651.786C604.534 652.92 604.87 654.201 604.87 655.629C604.87 657.071 604.534 658.366 603.862 659.514C603.204 660.648 602.301 661.537 601.153 662.181C600.005 662.825 598.745 663.147 597.373 663.147ZM597.373 660.522C598.255 660.522 599.032 660.326 599.704 659.934C600.376 659.528 600.901 658.954 601.279 658.212C601.657 657.47 601.846 656.609 601.846 655.629C601.846 654.649 601.657 653.795 601.279 653.067C600.901 652.325 600.376 651.758 599.704 651.366C599.032 650.974 598.255 650.778 597.373 650.778C596.491 650.778 595.707 650.974 595.021 651.366C594.349 651.758 593.824 652.325 593.446 653.067C593.068 653.795 592.879 654.649 592.879 655.629C592.879 656.609 593.068 657.47 593.446 658.212C593.824 658.954 594.349 659.528 595.021 659.934C595.707 660.326 596.491 660.522 597.373 660.522ZM609.997 648.342V663H607.057V648.342H609.997ZM615.842 660.669H620.672V663H612.902V648.342H615.842V660.669ZM625.481 650.715V654.39H630.416V656.721H625.481V660.606H631.046V663H622.541V648.321H631.046V650.715H625.481ZM643.693 648.342V650.715H639.787V663H636.847V650.715H632.941V648.342H643.693Z" fill="#7A7A7A"/>
<path d="M322.616 611.342L317.24 626H313.67L308.294 611.342H311.444L315.476 622.997L319.487 611.342H322.616ZM327.319 611.342V626H324.379V611.342H327.319ZM340.912 615.878C340.912 616.662 340.723 617.397 340.345 618.083C339.981 618.769 339.4 619.322 338.602 619.742C337.818 620.162 336.824 620.372 335.62 620.372H333.163V626H330.223V611.342H335.62C336.754 611.342 337.72 611.538 338.518 611.93C339.316 612.322 339.911 612.861 340.303 613.547C340.709 614.233 340.912 615.01 340.912 615.878ZM335.494 617.999C336.306 617.999 336.908 617.817 337.3 617.453C337.692 617.075 337.888 616.55 337.888 615.878C337.888 614.45 337.09 613.736 335.494 613.736H333.163V617.999H335.494ZM355.564 626L352.33 620.288H350.944V626H348.004V611.342H353.506C354.64 611.342 355.606 611.545 356.404 611.951C357.202 612.343 357.797 612.882 358.189 613.568C358.595 614.24 358.798 614.996 358.798 615.836C358.798 616.802 358.518 617.677 357.958 618.461C357.398 619.231 356.565 619.763 355.459 620.057L358.966 626H355.564ZM350.944 618.083H353.401C354.199 618.083 354.794 617.894 355.186 617.516C355.578 617.124 355.774 616.585 355.774 615.899C355.774 615.227 355.578 614.709 355.186 614.345C354.794 613.967 354.199 613.778 353.401 613.778H350.944V618.083ZM368.261 626.147C366.889 626.147 365.629 625.825 364.481 625.181C363.333 624.537 362.423 623.648 361.751 622.514C361.079 621.366 360.743 620.071 360.743 618.629C360.743 617.201 361.079 615.92 361.751 614.786C362.423 613.638 363.333 612.742 364.481 612.098C365.629 611.454 366.889 611.132 368.261 611.132C369.647 611.132 370.907 611.454 372.041 612.098C373.189 612.742 374.092 613.638 374.75 614.786C375.422 615.92 375.758 617.201 375.758 618.629C375.758 620.071 375.422 621.366 374.75 622.514C374.092 623.648 373.189 624.537 372.041 625.181C370.893 625.825 369.633 626.147 368.261 626.147ZM368.261 623.522C369.143 623.522 369.92 623.326 370.592 622.934C371.264 622.528 371.789 621.954 372.167 621.212C372.545 620.47 372.734 619.609 372.734 618.629C372.734 617.649 372.545 616.795 372.167 616.067C371.789 615.325 371.264 614.758 370.592 614.366C369.92 613.974 369.143 613.778 368.261 613.778C367.379 613.778 366.595 613.974 365.909 614.366C365.237 614.758 364.712 615.325 364.334 616.067C363.956 616.795 363.767 617.649 363.767 618.629C363.767 619.609 363.956 620.47 364.334 621.212C364.712 621.954 365.237 622.528 365.909 622.934C366.595 623.326 367.379 623.522 368.261 623.522ZM384.749 626.147C383.377 626.147 382.117 625.825 380.969 625.181C379.821 624.537 378.911 623.648 378.239 622.514C377.567 621.366 377.231 620.071 377.231 618.629C377.231 617.201 377.567 615.92 378.239 614.786C378.911 613.638 379.821 612.742 380.969 612.098C382.117 611.454 383.377 611.132 384.749 611.132C386.135 611.132 387.395 611.454 388.529 612.098C389.677 612.742 390.58 613.638 391.238 614.786C391.91 615.92 392.246 617.201 392.246 618.629C392.246 620.071 391.91 621.366 391.238 622.514C390.58 623.648 389.677 624.537 388.529 625.181C387.381 625.825 386.121 626.147 384.749 626.147ZM384.749 623.522C385.631 623.522 386.408 623.326 387.08 622.934C387.752 622.528 388.277 621.954 388.655 621.212C389.033 620.47 389.222 619.609 389.222 618.629C389.222 617.649 389.033 616.795 388.655 616.067C388.277 615.325 387.752 614.758 387.08 614.366C386.408 613.974 385.631 613.778 384.749 613.778C383.867 613.778 383.083 613.974 382.397 614.366C381.725 614.758 381.2 615.325 380.822 616.067C380.444 616.795 380.255 617.649 380.255 618.629C380.255 619.609 380.444 620.47 380.822 621.212C381.2 621.954 381.725 622.528 382.397 622.934C383.083 623.326 383.867 623.522 384.749 623.522ZM410.414 611.342V626H407.474V616.466L403.547 626H401.321L397.373 616.466V626H394.433V611.342H397.772L402.434 622.241L407.096 611.342H410.414Z" fill="#F59E0B"/>
<path d="M220.886 264.147C219.514 264.147 218.254 263.825 217.106 263.181C215.958 262.537 215.048 261.648 214.376 260.514C213.704 259.366 213.368 258.071 213.368 256.629C213.368 255.201 213.704 253.92 214.376 252.786C215.048 251.638 215.958 250.742 217.106 250.098C218.254 249.454 219.514 249.132 220.886 249.132C222.272 249.132 223.532 249.454 224.666 250.098C225.814 250.742 226.717 251.638 227.375 252.786C228.047 253.92 228.383 255.201 228.383 256.629C228.383 258.071 228.047 259.366 227.375 260.514C226.717 261.648 225.814 262.537 224.666 263.181C223.518 263.825 222.258 264.147 220.886 264.147ZM220.886 261.522C221.768 261.522 222.545 261.326 223.217 260.934C223.889 260.528 224.414 259.954 224.792 259.212C225.17 258.47 225.359 257.609 225.359 256.629C225.359 255.649 225.17 254.795 224.792 254.067C224.414 253.325 223.889 252.758 223.217 252.366C222.545 251.974 221.768 251.778 220.886 251.778C220.004 251.778 219.22 251.974 218.534 252.366C217.862 252.758 217.337 253.325 216.959 254.067C216.581 254.795 216.392 255.649 216.392 256.629C216.392 257.609 216.581 258.47 216.959 259.212C217.337 259.954 217.862 260.528 218.534 260.934C219.22 261.326 220.004 261.522 220.886 261.522ZM233.469 249.342V258.414C233.469 259.408 233.728 260.171 234.246 260.703C234.764 261.221 235.492 261.48 236.43 261.48C237.382 261.48 238.117 261.221 238.635 260.703C239.153 260.171 239.412 259.408 239.412 258.414V249.342H242.373V258.393C242.373 259.639 242.1 260.696 241.554 261.564C241.022 262.418 240.301 263.062 239.391 263.496C238.495 263.93 237.494 264.147 236.388 264.147C235.296 264.147 234.302 263.93 233.406 263.496C232.524 263.062 231.824 262.418 231.306 261.564C230.788 260.696 230.529 259.639 230.529 258.393V249.342H233.469ZM255.188 249.342V251.715H251.282V264H248.342V251.715H244.436V249.342H255.188ZM262.457 249.342C263.997 249.342 265.348 249.643 266.51 250.245C267.686 250.847 268.589 251.708 269.219 252.828C269.863 253.934 270.185 255.222 270.185 256.692C270.185 258.162 269.863 259.45 269.219 260.556C268.589 261.648 267.686 262.495 266.51 263.097C265.348 263.699 263.997 264 262.457 264H257.333V249.342H262.457ZM262.352 261.501C263.892 261.501 265.082 261.081 265.922 260.241C266.762 259.401 267.182 258.218 267.182 256.692C267.182 255.166 266.762 253.976 265.922 253.122C265.082 252.254 263.892 251.82 262.352 251.82H260.273V261.501H262.352ZM279.19 264.147C277.818 264.147 276.558 263.825 275.41 263.181C274.262 262.537 273.352 261.648 272.68 260.514C272.008 259.366 271.672 258.071 271.672 256.629C271.672 255.201 272.008 253.92 272.68 252.786C273.352 251.638 274.262 250.742 275.41 250.098C276.558 249.454 277.818 249.132 279.19 249.132C280.576 249.132 281.836 249.454 282.97 250.098C284.118 250.742 285.021 251.638 285.679 252.786C286.351 253.92 286.687 255.201 286.687 256.629C286.687 258.071 286.351 259.366 285.679 260.514C285.021 261.648 284.118 262.537 282.97 263.181C281.822 263.825 280.562 264.147 279.19 264.147ZM279.19 261.522C280.072 261.522 280.849 261.326 281.521 260.934C282.193 260.528 282.718 259.954 283.096 259.212C283.474 258.47 283.663 257.609 283.663 256.629C283.663 255.649 283.474 254.795 283.096 254.067C282.718 253.325 282.193 252.758 281.521 252.366C280.849 251.974 280.072 251.778 279.19 251.778C278.308 251.778 277.524 251.974 276.838 252.366C276.166 252.758 275.641 253.325 275.263 254.067C274.885 254.795 274.696 255.649 274.696 256.629C274.696 257.609 274.885 258.47 275.263 259.212C275.641 259.954 276.166 260.528 276.838 260.934C277.524 261.326 278.308 261.522 279.19 261.522ZM295.678 264.147C294.306 264.147 293.046 263.825 291.898 263.181C290.75 262.537 289.84 261.648 289.168 260.514C288.496 259.366 288.16 258.071 288.16 256.629C288.16 255.201 288.496 253.92 289.168 252.786C289.84 251.638 290.75 250.742 291.898 250.098C293.046 249.454 294.306 249.132 295.678 249.132C297.064 249.132 298.324 249.454 299.458 250.098C300.606 250.742 301.509 251.638 302.167 252.786C302.839 253.92 303.175 255.201 303.175 256.629C303.175 258.071 302.839 259.366 302.167 260.514C301.509 261.648 300.606 262.537 299.458 263.181C298.31 263.825 297.05 264.147 295.678 264.147ZM295.678 261.522C296.56 261.522 297.337 261.326 298.009 260.934C298.681 260.528 299.206 259.954 299.584 259.212C299.962 258.47 300.151 257.609 300.151 256.629C300.151 255.649 299.962 254.795 299.584 254.067C299.206 253.325 298.681 252.758 298.009 252.366C297.337 251.974 296.56 251.778 295.678 251.778C294.796 251.778 294.012 251.974 293.326 252.366C292.654 252.758 292.129 253.325 291.751 254.067C291.373 254.795 291.184 255.649 291.184 256.629C291.184 257.609 291.373 258.47 291.751 259.212C292.129 259.954 292.654 260.528 293.326 260.934C294.012 261.326 294.796 261.522 295.678 261.522ZM312.923 264L309.689 258.288H308.303V264H305.363V249.342H310.865C311.999 249.342 312.965 249.545 313.763 249.951C314.561 250.343 315.156 250.882 315.548 251.568C315.954 252.24 316.157 252.996 316.157 253.836C316.157 254.802 315.877 255.677 315.317 256.461C314.757 257.231 313.924 257.763 312.818 258.057L316.325 264H312.923ZM308.303 256.083H310.76C311.558 256.083 312.153 255.894 312.545 255.516C312.937 255.124 313.133 254.585 313.133 253.899C313.133 253.227 312.937 252.709 312.545 252.345C312.153 251.967 311.558 251.778 310.76 251.778H308.303V256.083Z" fill="#84CC16"/>
<path d="M131.046 437.342V452H128.106V442.466L124.179 452H121.953L118.005 442.466V452H115.065V437.342H118.404L123.066 448.241L127.728 437.342H131.046ZM136.893 439.715V443.39H141.828V445.721H136.893V449.606H142.458V452H133.953V437.321H142.458V439.715H136.893ZM148.07 439.715V443.39H153.005V445.721H148.07V449.606H153.635V452H145.13V437.321H153.635V439.715H148.07ZM166.281 437.342V439.715H162.375V452H159.435V439.715H155.529V437.342H166.281ZM171.367 437.342V452H168.427V437.342H171.367ZM186.808 452H183.868L177.211 441.941V452H174.271V437.321H177.211L183.868 447.401V437.321H186.808V452ZM199.92 441.752C199.584 441.136 199.122 440.667 198.534 440.345C197.946 440.023 197.26 439.862 196.476 439.862C195.608 439.862 194.838 440.058 194.166 440.45C193.494 440.842 192.969 441.402 192.591 442.13C192.213 442.858 192.024 443.698 192.024 444.65C192.024 445.63 192.213 446.484 192.591 447.212C192.983 447.94 193.522 448.5 194.208 448.892C194.894 449.284 195.692 449.48 196.602 449.48C197.722 449.48 198.639 449.186 199.353 448.598C200.067 447.996 200.536 447.163 200.76 446.099H195.72V443.852H203.658V446.414C203.462 447.436 203.042 448.381 202.398 449.249C201.754 450.117 200.921 450.817 199.899 451.349C198.891 451.867 197.757 452.126 196.497 452.126C195.083 452.126 193.802 451.811 192.654 451.181C191.52 450.537 190.624 449.648 189.966 448.514C189.322 447.38 189 446.092 189 444.65C189 443.208 189.322 441.92 189.966 440.786C190.624 439.638 191.52 438.749 192.654 438.119C193.802 437.475 195.076 437.153 196.476 437.153C198.128 437.153 199.563 437.559 200.781 438.371C201.999 439.169 202.839 440.296 203.301 441.752H199.92ZM135.35 484L132.116 478.288H130.73V484H127.79V469.342H133.292C134.426 469.342 135.392 469.545 136.19 469.951C136.988 470.343 137.583 470.882 137.975 471.568C138.381 472.24 138.584 472.996 138.584 473.836C138.584 474.802 138.304 475.677 137.744 476.461C137.184 477.231 136.351 477.763 135.245 478.057L138.752 484H135.35ZM130.73 476.083H133.187C133.985 476.083 134.58 475.894 134.972 475.516C135.364 475.124 135.56 474.585 135.56 473.899C135.56 473.227 135.364 472.709 134.972 472.345C134.58 471.967 133.985 471.778 133.187 471.778H130.73V476.083ZM148.047 484.147C146.675 484.147 145.415 483.825 144.267 483.181C143.119 482.537 142.209 481.648 141.537 480.514C140.865 479.366 140.529 478.071 140.529 476.629C140.529 475.201 140.865 473.92 141.537 472.786C142.209 471.638 143.119 470.742 144.267 470.098C145.415 469.454 146.675 469.132 148.047 469.132C149.433 469.132 150.693 469.454 151.827 470.098C152.975 470.742 153.878 471.638 154.536 472.786C155.208 473.92 155.544 475.201 155.544 476.629C155.544 478.071 155.208 479.366 154.536 480.514C153.878 481.648 152.975 482.537 151.827 483.181C150.679 483.825 149.419 484.147 148.047 484.147ZM148.047 481.522C148.929 481.522 149.706 481.326 150.378 480.934C151.05 480.528 151.575 479.954 151.953 479.212C152.331 478.47 152.52 477.609 152.52 476.629C152.52 475.649 152.331 474.795 151.953 474.067C151.575 473.325 151.05 472.758 150.378 472.366C149.706 471.974 148.929 471.778 148.047 471.778C147.165 471.778 146.381 471.974 145.695 472.366C145.023 472.758 144.498 473.325 144.12 474.067C143.742 474.795 143.553 475.649 143.553 476.629C143.553 477.609 143.742 478.47 144.12 479.212C144.498 479.954 145.023 480.528 145.695 480.934C146.381 481.326 147.165 481.522 148.047 481.522ZM164.536 484.147C163.164 484.147 161.904 483.825 160.756 483.181C159.608 482.537 158.698 481.648 158.026 480.514C157.354 479.366 157.018 478.071 157.018 476.629C157.018 475.201 157.354 473.92 158.026 472.786C158.698 471.638 159.608 470.742 160.756 470.098C161.904 469.454 163.164 469.132 164.536 469.132C165.922 469.132 167.182 469.454 168.316 470.098C169.464 470.742 170.367 471.638 171.025 472.786C171.697 473.92 172.033 475.201 172.033 476.629C172.033 478.071 171.697 479.366 171.025 480.514C170.367 481.648 169.464 482.537 168.316 483.181C167.168 483.825 165.908 484.147 164.536 484.147ZM164.536 481.522C165.418 481.522 166.195 481.326 166.867 480.934C167.539 480.528 168.064 479.954 168.442 479.212C168.82 478.47 169.009 477.609 169.009 476.629C169.009 475.649 168.82 474.795 168.442 474.067C168.064 473.325 167.539 472.758 166.867 472.366C166.195 471.974 165.418 471.778 164.536 471.778C163.654 471.778 162.87 471.974 162.184 472.366C161.512 472.758 160.987 473.325 160.609 474.067C160.231 474.795 160.042 475.649 160.042 476.629C160.042 477.609 160.231 478.47 160.609 479.212C160.987 479.954 161.512 480.528 162.184 480.934C162.87 481.326 163.654 481.522 164.536 481.522ZM190.201 469.342V484H187.261V474.466L183.334 484H181.108L177.16 474.466V484H174.22V469.342H177.559L182.221 480.241L186.883 469.342H190.201Z" fill="#DC2626"/>
<line x1="60" y1="401.5" x2="372" y2="401.5" stroke="#7A7A7A" stroke-width="7"/>
</svg>
